<?xml version="1.0" standalone="no"?>
<!DOCTYPE svg PUBLIC "-//W3C//DTD SVG 20010904//EN"
 "http://www.w3.org/TR/2001/REC-SVG-20010904/DTD/svg10.dtd">
<svg version="1.0" xmlns="http://www.w3.org/2000/svg"
 width="1000.000000pt" height="1000.000000pt" viewBox="0 0 1000.000000 1000.000000"
 preserveAspectRatio="xMidYMid meet">
<metadata>
Created by potrace 1.14, written by Peter Selinger 2001-2017
</metadata>
<g transform="translate(0.000000,1000.000000) scale(0.100000,-0.100000)"
fill="#000000" stroke="none">
<path d="M4960 8034 c-343 -21 -704 -96 -979 -205 -548 -216 -951 -636 -1091
-1137 -48 -170 -63 -293 -63 -517 0 -444 85 -702 317 -967 272 -312 672 -508
1290 -634 624 -126 910 -206 1130 -316 224 -111 303 -194 346 -363 76 -297
-66 -552 -394 -706 -176 -82 -362 -114 -616 -106 -323 11 -531 75 -773 237
-149 100 -256 189 -401 333 l-129 128 -26 -24 c-471 -440 -917 -860 -919 -868
-9 -26 277 -291 438 -406 356 -255 818 -407 1410 -464 185 -18 613 -16 798 5
733 80 1233 283 1597 650 195 196 302 362 379 584 69 198 81 291 81 602 -1
261 -2 282 -28 402 -62 293 -167 481 -386 698 -134 132 -255 215 -466 320
-259 128 -416 178 -969 305 -623 144 -766 186 -974 287 -185 90 -260 195 -270
374 -15 295 127 473 469 584 236 77 511 80 768 9 245 -69 492 -235 662 -447
34 -42 66 -77 70 -77 9 0 949 844 949 852 0 10 -50 73 -123 156 -149 169 -366
330 -581 433 -260 123 -647 226 -996 263 -107 12 -422 21 -520 15z"/>
</g>
</svg>
